Fernando Poe Jr. stars with Miss Universe 1969 Gloria Diaz in Lea ProductionsΓÇÖ ANDALUCIA , a Pablo Gomez novel serialized in Pilipino Komiks. Also stars Manny Boy Quizon, Walter Navarro, Victor Bravo and Vivian Velez. Da King stars as Eliseo a former police officer who seeks refuge in the monastery. of Dos Cruses. Gloria Diaz is Dolores, the mute girl who fell in love with Eliseo and followed him in his search for the group of bandits who raided the monastery of Andalucia..
General
Complete name                    : D:\UPLOADS\FPJ CLASSICS\Andalucia vcdrip XviD\Andalucia.avi
Format                           : AVI
Format/Info                      : Audio Video Interleave
File size                        : 899 MiB
Duration                         : 1h 39mn
Overall bit rate                 : 1 261 Kbps
Writing application              : VirtualDubMod 1.5.4.1 (build 2178/release)
Writing library                  : VirtualDubMod build 2178/release

Video
ID                               : 0
Format                           : MPEG-4 Visual
Format profile                   : Advanced Simple@L5
Format settings, BVOP            : Yes
Format settings, QPel            : No
Format settings, GMC             : No warppoints
Format settings, Matrix          : Default (H.263)
Muxing mode                      : Packed bitstream
Codec ID                         : XVID
Codec ID/Hint                    : XviD
Duration                         : 1h 39mn
Bit rate                         : 1 140 Kbps
Width                            : 576 pixels
Height                           : 432 pixels
Display aspect ratio             : 4:3
Frame rate                       : 25.000 fps
Color space                      : YUV
Chroma subsampling               : 4:2:0
Bit depth                        : 8 bits
Scan type                        : Progressive
Bits/(Pixel*Frame)               : 0.183
Stream size                      : 813 MiB (90%)
Writing library                  : XviD 1.2.1 (UTC 2008-12-04)

Audio
ID                               : 1
Format                           : MPEG Audio
Format version                   : Version 1
Format profile                   : Layer 3
Mode                             : Joint stereo
Mode extension                   : MS Stereo
Codec ID                         : 55
Codec ID/Hint                    : MP3
Duration                         : 1h 39mn
Bit rate mode                    : Variable
Bit rate                         : 108 Kbps
Nominal bit rate                 : 128 Kbps
Channel(s)                       : 2 channels
Sampling rate                    : 44.1 KHz
Stream size                      : 77.3 MiB (9%)
Alignment                        : Aligned on interleaves
Interleave, duration             : 26 ms (0.65 video frame)
Interleave, preload duration     : 511 ms
Writing library                  : LAME3.98r
Encoding settings                : -m j -V 4 -q 2 -lowpass 17 --abr 128


